HIERARCHY
ROOT Hips
{
	OFFSET	0.00	0.00	0.00
	CHANNELS 6 Xposition Yposition Zposition Zrotation Xrotation Yrotation
	JOINT LeftUpLeg
	{
		OFFSET	 0.126116	-0.014019	-0.065224
		CHANNELS 3 Zrotation Xrotation Yrotation
		JOINT LeftLeg
		{
			OFFSET	 0.000000	 0.000000	 0.569914
			CHANNELS 3 Zrotation Xrotation Yrotation
			JOINT LeftFoot
			{
				OFFSET	 0.000000	 0.000000	 0.544423
				CHANNELS 3 Zrotation Xrotation Yrotation
				JOINT LeftToeBase
				{
					OFFSET	 0.000000	 0.000000	 0.207117
					CHANNELS 3 Zrotation Xrotation Yrotation
					End Site
					{
						OFFSET	 0.000000	 0.000000	 0.207117
					}
				}
			}
		}
	}
	JOINT RightUpLeg
	{
		OFFSET	-0.124023	-0.008373	-0.065224
		CHANNELS 3 Zrotation Xrotation Yrotation
		JOINT RightLeg
		{
			OFFSET	 0.000000	 0.000000	 0.570047
			CHANNELS 3 Zrotation Xrotation Yrotation
			JOINT RightFoot
			{
				OFFSET	 0.000000	 0.000000	 0.544354
				CHANNELS 3 Zrotation Xrotation Yrotation
				JOINT RightToeBase
				{
					OFFSET	 0.000000	 0.000000	 0.207540
					CHANNELS 3 Zrotation Xrotation Yrotation
					End Site
					{
						OFFSET	 0.000000	 0.000000	 0.207540
					}
				}
			}
		}
	}
	JOINT Spine
	{
		OFFSET	 0.000184	-0.007763	 0.117403
		CHANNELS 3 Zrotation Xrotation Yrotation
		JOINT Spine1
		{
			OFFSET	 0.000000	 0.000000	 0.137269
			CHANNELS 3 Zrotation Xrotation Yrotation
			JOINT Spine2
			{
				OFFSET	 0.000000	 0.000000	 0.156879
				CHANNELS 3 Zrotation Xrotation Yrotation
				JOINT LeftShoulder
				{
					OFFSET	 0.080501	-0.002496	 0.160144
					CHANNELS 3 Zrotation Xrotation Yrotation
					JOINT LeftArm
					{
						OFFSET	 0.000000	 0.000000	 0.164363
						CHANNELS 3 Zrotation Xrotation Yrotation
						JOINT LeftForeArm
						{
							OFFSET	 0.000000	 0.000000	 0.364576
							CHANNELS 3 Zrotation Xrotation Yrotation
							JOINT LeftHand
							{
								OFFSET	 0.000000	 0.000000	 0.360812
								CHANNELS 3 Zrotation Xrotation Yrotation
								JOINT LeftHandIndex1
								{
									OFFSET	 0.000000	 0.000000	 0.086006
									CHANNELS 3 Zrotation Xrotation Yrotation
									JOINT LeftHandIndex2
									{
										OFFSET	 0.000000	 0.000000	 0.047236
										CHANNELS 3 Zrotation Xrotation Yrotation
										JOINT LeftHandIndex3
										{
											OFFSET	-0.004284	-0.000551	 0.038166
											CHANNELS 3 Zrotation Xrotation Yrotation
											End Site
											{
												OFFSET	-0.004284	-0.000551	 0.038166
											}
										}
									}
								}
							}
						}
					}
				}
				JOINT Neck
				{
					OFFSET	 0.000000	 0.000000	 0.176489
					CHANNELS 3 Zrotation Xrotation Yrotation
					JOINT Head
					{
						OFFSET	 0.000000	-0.001747	 0.077940
						CHANNELS 3 Zrotation Xrotation Yrotation
						End Site
						{
							OFFSET	 0.000000	-0.001747	 0.077940
						}
					}
				}
				JOINT RightShoulder
				{
					OFFSET	-0.080363	 0.000306	 0.159706
					CHANNELS 3 Zrotation Xrotation Yrotation
					JOINT RightArm
					{
						OFFSET	 0.000000	 0.000000	 0.164196
						CHANNELS 3 Zrotation Xrotation Yrotation
						JOINT RightForeArm
						{
							OFFSET	 0.000000	 0.000000	 0.365611
							CHANNELS 3 Zrotation Xrotation Yrotation
							JOINT RightHand
							{
								OFFSET	 0.000000	 0.000000	 0.360648
								CHANNELS 3 Zrotation Xrotation Yrotation
								JOINT RightHandIndex1
								{
									OFFSET	 0.000000	 0.000000	 0.069977
									CHANNELS 3 Zrotation Xrotation Yrotation
									JOINT RightHandIndex2
									{
										OFFSET	 0.000000	 0.000000	 0.052305
										CHANNELS 3 Zrotation Xrotation Yrotation
										JOINT RightHandIndex3
										{
											OFFSET	 0.009002	-0.000782	 0.042196
											CHANNELS 3 Zrotation Xrotation Yrotation
											End Site
											{
												OFFSET	 0.009002	-0.000782	 0.042196
											}
										}
									}
								}
							}
						}
					}
				}
			}
		}
	}
}
MOTION
Frames:    5
Frame Time: 0.03333334
-0.057891	-2.241647	 1.201294	 4.094262	-1.830427	-3.599496	 23.841520	-9.717916	-175.646900	 0.298261	-39.121130	-0.026767	 67.440790	 82.327160	-71.031320	-2.371377	 31.281140	-0.062379	-26.822970	-30.594010	-175.256900	 10.203680	-53.207340	 8.803557	 2.956032	 71.399620	 4.336904	 2.357839	 33.165700	 0.107078	 23.526370	 8.953355	 1.046194	 1.408515	 3.306257	 2.796734	-7.765141	-2.782630	-3.655322	-93.764690	 58.862580	 175.770500	 9.892176	 27.366620	-44.236880	 10.896090	-1.152731	-5.540240	-2.821546	-15.927200	-6.701255	-4.869483	 19.239930	-2.786442	-3.890924	 21.352460	 2.212296	-4.808240	 5.545738	 0.146954	-0.127295	-5.013783	 0.157958	-9.847116	 1.827117	 2.311059	 89.833490	 61.580280	-179.877800	-18.775670	 48.396020	 14.571450	-12.756390	-1.248865	 5.697480	-2.558114	-2.209328	 0.855083	 6.304741	 26.019530	-0.578039	 1.724376	 45.970480	-6.848978	 0.343376	 25.072730	 3.662006
-0.059723	-2.286803	 1.200392	 4.699333	-1.536004	-3.587071	 22.915360	-7.558471	-176.657300	 0.785548	-38.108740	 0.219895	 74.266560	 83.603070	-77.894990	-2.370311	 31.462320	-0.066465	-28.724250	-32.904180	-177.545800	 9.693256	-48.014980	 7.807215	-2.387996	 70.718670	 10.202240	 2.358464	 33.075230	 0.104968	 20.029820	 8.807356	 1.001751	 1.233856	 3.525634	 2.724226	-7.864523	-2.985569	-3.616954	-93.877140	 58.952050	 175.520300	 8.454176	 25.015830	-44.802720	 12.477600	-1.607160	-6.510185	-1.623158	-17.619280	-7.475382	-4.869205	 19.245520	-2.786504	-3.886432	 21.410020	 2.207735	-4.808264	 5.545496	 0.146969	-0.093734	-5.053853	 0.175047	-9.820584	 1.803821	 2.166339	 89.798160	 61.625030	-179.961700	-19.067600	 50.093980	 10.664160	-14.962120	-3.665444	 10.959870	-3.781543	-3.315177	 0.698940	 6.297417	 25.251070	-0.553149	 1.833292	 45.119190	-6.946526	 0.471577	 24.515600	 3.596082
-0.061370	-2.323529	 1.197879	 5.214892	-1.251115	-3.592112	 22.017120	-5.960517	-177.445400	 1.022032	-37.461210	 0.407102	 82.431010	 84.567470	-86.109170	-2.369391	 31.615660	-0.069943	-30.274790	-34.376750	-179.487100	 9.350638	-43.044700	 6.938173	-6.542409	 70.074970	 14.528200	 2.358911	 33.008210	 0.103415	 17.019730	 8.654719	 0.957248	 1.125358	 3.711643	 2.702017	-7.953114	-3.160876	-3.604151	-93.978270	 59.016650	 175.296400	 7.282224	 23.155990	-45.215560	 13.782190	-2.023188	-7.260560	-0.677238	-19.055390	-8.041600	-4.868352	 19.267490	-2.787926	-3.882023	 21.466470	 2.203258	-4.807768	 5.551349	 0.146626	-0.065424	-5.085653	 0.193407	-9.802444	 1.784088	 2.049545	 89.764960	 61.666750	 179.959200	-19.121430	 51.289470	 8.064895	-16.678830	-5.403825	 14.029500	-4.819995	-4.209547	 0.520450	 6.290330	 24.549520	-0.537648	 1.926870	 44.364140	-7.029956	 0.594259	 23.977160	 3.533957
-0.063405	-2.363707	 1.193801	 5.724781	-0.784522	-3.629363	 21.187930	-4.362695	-178.206000	 1.210841	-36.776780	 0.513783	 94.532520	 85.490330	-98.155520	-2.368507	 31.761020	-0.073242	-32.030140	-35.565440	 178.280900	 9.249603	-37.042760	 6.067924	-11.328670	 69.428960	 19.162970	 2.359019	 32.994610	 0.103089	 13.640190	 8.339557	 0.885764	 1.007787	 3.872614	 2.755515	-8.057128	-3.344852	-3.632359	-94.107250	 59.018870	 175.020800	 6.030781	 21.288930	-45.548290	 15.466670	-2.524596	-8.043233	 0.589955	-20.774610	-8.185265	-4.864245	 19.378710	-2.796570	-3.874662	 21.560570	 2.195776	-4.804605	 5.588561	 0.144450	-0.039132	-5.104836	 0.231041	-9.807382	 1.765793	 1.967173	 89.715840	 61.726180	 179.841500	-19.032310	 52.422660	 5.723636	-18.689500	-7.043281	 16.322920	-6.122900	-5.200866	 0.240670	 6.277205	 23.615670	-0.550731	 2.034521	 43.466940	-7.125485	 0.788060	 23.115950	 3.437755
-0.065378	-2.397637	 1.189647	 6.109085	-0.388980	-3.697042	 20.535020	-2.933748	-178.823400	 1.356675	-36.061430	 0.591014	 108.489100	 86.098720	-112.069400	-2.367642	 31.904420	-0.076494	-33.279790	-36.296150	 176.534000	 9.239209	-32.283510	 5.378564	-14.618000	 69.491850	 21.981380	 2.359360	 32.942530	 0.101886	 10.686590	 8.056373	 0.857666	 0.903642	 3.947423	 2.794863	-8.138216	-3.463035	-3.650849	-94.214120	 59.011280	 174.794000	 5.114046	 19.958450	-45.760070	 16.778900	-2.973541	-8.663529	 1.596168	-22.258060	-8.104725	-4.859649	 19.496220	-2.804316	-3.867477	 21.652160	 2.188479	-4.801059	 5.630294	 0.142006	-0.019805	-5.125653	 0.263088	-9.816686	 1.749094	 1.909312	 89.667860	 61.784560	 179.726300	-18.837720	 53.208380	 4.259605	-20.486640	-8.008509	 17.220710	-7.282123	-6.001259	-0.102605	 6.264748	 22.778530	-0.567143	 2.122973	 42.706220	-7.203594	 0.963623	 22.324660	 3.352700
